<svg width="2" height="2" viewBox="0 0 16 16" fill="none" xmlns="http://www.w3.org/2000/svg">
<g id="_cross-1">
<path id="Vector" 
d="M8 7.95283L7.64645 7.59927L2.69023 2.64307L2.69022 2.64306C2.67721 2.63005 2.65612 2.63005 2.64311 2.64306L2.64309 2.64308C2.63008 2.65609 2.63008 2.67718 2.64309 2.69019L2.6431 2.6902L7.5993 7.64642L7.95286 7.99997L7.5993 8.35353L2.64313 13.3097L8 7.95283ZM8 7.95283L8.35356 7.59927M8 7.95283L8.35356 7.59927M8.35356 7.59927L13.3097 2.6431L12.9562 2.28956L13.3097 2.64307M8.35356 7.59927L13.3097 2.64307M8 8.04711L8.35356 8.40067L13.3096 13.3568C13.3227 13.3699 13.344 13.3699 13.357 13.3568L8 8.04711ZM8 8.04711L7.64645 8.40067M8 8.04711L7.64645 8.40067M7.64645 8.40067L2.69029 13.3569C2.69027 13.3569 2.69025 13.3569 2.69024 13.3569C2.67721 13.3699 2.65606 13.3699 2.64305 13.3569M7.64645 8.40067L2.64305 13.3569M8.04714 7.99997L8.4007 7.64642L13.3569 2.69026C13.3569 2.69024 13.3569 2.69022 13.357 2.6902C13.3699 2.67718 13.3699 2.65607 13.3569 2.64306C13.3569 2.64304 13.3569 2.64303 13.3569 2.64302M8.04714 7.99997L13.7105 2.28952L13.3569 2.64302M8.04714 7.99997L8.4007 8.35353M8.04714 7.99997L8.4007 8.35353M13.3569 2.64302C13.3438 2.63004 13.3228 2.63006 13.3097 2.64307M13.3569 2.64302L13.3097 2.64307M8.4007 8.35353L13.3569 13.3096L8.4007 8.35353ZM2.64305 13.3569C2.63007 13.3438 2.63009 13.3227 2.6431 13.3097L2.64305 13.3569Z"
 fill="#09090B" stroke="white"/>
</g>
</svg>
